
        <svg xmlns="http://www.w3.org/2000/svg" xmlns:xlink="http://www.w3.org/1999/xlink" version="1.1" width="3250" height="1037.5" viewBox="0 0 3250 1037.5">
			
			<g transform="scale(12.5) translate(10, 10)">
				<defs id="SvgjsDefs1287"/><g id="SvgjsG1288" featureKey="rootContainer" transform="matrix(1,0,0,1,0,0)" fill="#fff"><rect xmlns="http://www.w3.org/2000/svg" width="240" height="63" rx="10" ry="10"/></g><g id="SvgjsG1289" featureKey="nameFeature-0" transform="matrix(0.7756749399330091,0,0,0.7756749399330091,17.0834622332493,11.374494756713892)" fill="#000000"><path d="M3.76 40 l0 -28.88 l16.12 0 c6.48 0 11.36 2.88 11.36 9.48 c0 5.8 -3.64 9.16 -12.32 9.16 l-6.76 0 l0 10.24 l-8.4 0 z M12.16 16.72 l0 7.44 l5.16 0 c3.16 0 5.28 -0.8 5.28 -3.68 c0 -2.48 -1.64 -3.76 -4.64 -3.76 l-5.8 0 z M51.480000000000004 31.240000000000002 l-3.2 0 c-5.16 0 -6.24 1.36 -6.24 3.04 c0 1.24 1.16 2.08 3.32 2.08 c5 0 6.12 -3.04 6.12 -5.12 z M43.2 25.84 l-7.92 0 c0.4 -5.24 6.28 -6.68 11.56 -6.68 c7.84 0 12.32 1.88 12.32 8.68 l0 7.68 c0 1.48 0.04 3 0.16 4.48 l-7.44 0 c-0.08 -0.68 -0.16 -2.16 -0.16 -3.24 l-0.08 0 c-1.84 3.04 -5.28 4 -8.68 4 c-5.72 0 -9.08 -2.32 -9.08 -6.52 c0 -4.76 4.48 -6.92 12 -6.92 l5.6 0 c0 -3.2 -1.48 -4 -4.52 -4 c-2.84 0 -3.72 1.12 -3.76 2.52 z M65.48 40 l0 -15.96 c0 -1.28 -0.04 -2.76 -0.16 -4.12 l7.44 0 c0.08 1.2 0.16 2.4 0.16 3.6 l0.08 0 c2 -2.68 5 -4.36 8.52 -4.36 c7.32 0 10.08 4.16 10.08 9.4 l0 11.44 l-7.68 0 l0 -10.28 c0 -3.2 -1.4 -5.44 -4.88 -5.44 c-3.16 0 -5.88 2.44 -5.88 6.88 l0 8.84 l-7.68 0 z M124.2 11.120000000000001 l0 25.56 c0 1.24 0.04 2.24 0.16 3.32 l-7.44 0 c-0.12 -1.12 -0.16 -2.2 -0.16 -3.32 c-1.76 2.08 -4 4.08 -9 4.08 c-6.36 0 -11.16 -4.04 -11.16 -10.92 c0 -6.64 4.64 -10.68 11.36 -10.68 c4.44 0 7 1.8 8.56 3.4 l0 -11.44 l7.68 0 z M104.76 29.84 c0 3.24 1.84 6.28 5.8 6.28 c3.48 0 5.96 -2.44 5.96 -6 c0 -3.88 -2.48 -6.32 -5.96 -6.32 c-3.4 0 -5.8 2.52 -5.8 6.04 z M146.32 31.240000000000002 l-3.2 0 c-5.16 0 -6.24 1.36 -6.24 3.04 c0 1.24 1.16 2.08 3.32 2.08 c5 0 6.12 -3.04 6.12 -5.12 z M138.04 25.84 l-7.92 0 c0.4 -5.24 6.28 -6.68 11.56 -6.68 c7.84 0 12.32 1.88 12.32 8.68 l0 7.68 c0 1.48 0.04 3 0.16 4.48 l-7.44 0 c-0.08 -0.68 -0.16 -2.16 -0.16 -3.24 l-0.08 0 c-1.84 3.04 -5.28 4 -8.68 4 c-5.72 0 -9.08 -2.32 -9.08 -6.52 c0 -4.76 4.48 -6.92 12 -6.92 l5.6 0 c0 -3.2 -1.48 -4 -4.52 -4 c-2.84 0 -3.72 1.12 -3.76 2.52 z M175.07999999999998 40 l0 -28.88 l8.4 0 l0 28.88 l-8.4 0 z M190.08 40 l0 -28.88 l11.04 0 l13.16 20.8 l0.08 0 l0 -20.8 l7.44 0 l0 28.88 l-11.12 0 l-13.08 -20.8 l-0.08 0 l0 20.8 l-7.44 0 z M229.20000000000002 40 l0 -28.88 l16.04 0 c3.8 0 7.48 0.48 10.4 2.4 c3.6 2.36 5.96 6.52 5.96 11.76 c0 5.08 -1.88 8.92 -4.6 11.24 c-2.48 2.12 -6.48 3.48 -12.36 3.48 l-15.44 0 z M237.60000000000002 16.72 l0 17.68 l3.8 0 c6.8 0 11.56 -1.04 11.56 -8.96 c0 -6.8 -3.96 -8.72 -10.16 -8.72 l-5.2 0 z"/></g>
			</g>
		</svg>
	