<?xml version="1.0" encoding="UTF-8"?>
<svg version="1.1" xmlns="http://www.w3.org/2000/svg" width="840" height="222">
<path d="M0 0 C8 0 8 0 9.75585938 1.33154297 C10.11486328 1.96205566 10.47386719 2.59256836 10.84375 3.2421875 C11.27743896 3.96623779 11.71112793 4.69028809 12.15795898 5.4362793 C12.60083252 6.24105713 13.04370605 7.04583496 13.5 7.875 C14.52166394 9.6083509 15.54382799 11.34140709 16.56640625 13.07421875 C17.11055176 14.01958496 17.65469727 14.96495117 18.21533203 15.93896484 C21.17224262 21.01061259 24.28434722 25.9865085 27.37792969 30.97540283 C29.64889222 34.64491723 31.89917712 38.32718003 34.15405273 42.0065918 C36.419965 45.68101983 38.71203811 49.33926098 41 53 C41.33 35.51 41.66 18.02 42 0 C44.97 0 47.94 0 51 0 C51 24.09 51 48.18 51 73 C43 73 43 73 40.92041016 71.19262695 C40.42331543 70.36206787 39.9262207 69.53150879 39.4140625 68.67578125 C38.84461914 67.75877441 38.27517578 66.84176758 37.68847656 65.89697266 C37.1312793 64.94097168 36.57408203 63.9849707 36 63 C34.90378848 61.24340055 33.8074352 59.48688957 32.7109375 57.73046875 C31.59549792 55.88489951 30.4835363 54.03722392 29.375 52.1875 C22.67926894 41.06341869 15.8356118 30.04214214 9 19 C8.67 36.82 8.34 54.64 8 73 C5.36 73 2.72 73 0 73 C0 48.91 0 24.82 0 0 Z " fill="#FBEFE3" transform="translate(324,78)"/>
<path d="M0 0 C26.925 0 26.925 0 34 4 C34.79148437 4.4125 35.58296875 4.825 36.3984375 5.25 C44.30541731 9.87335032 49.28447389 16.77586298 51.9375 25.5 C54.29460928 35.93862683 53.47863136 46.39147226 48.44140625 55.9609375 C41.81669225 66.01507725 33.47710096 70.13072476 22 73 C14.74 73 7.48 73 0 73 C0 48.91 0 24.82 0 0 Z M9 8 C9 26.81 9 45.62 9 65 C21.97900369 64.0016151 31.40895114 62.91731677 40 53 C45.09691188 45.90175832 45.02164967 37.40620518 44 29 C41.9629609 22.13175312 38.15903972 16.71405231 32 13 C24.10003832 9.11866022 18.20330547 8.76694212 9 8 Z " fill="#FBEFE3" transform="translate(444,78)"/>
<path d="M0 0 C3 1 3 1 4.57128906 4.04638672 C5.14724886 5.41951706 5.71109248 6.79776482 6.265625 8.1796875 C6.57622864 8.92761063 6.88683228 9.67553375 7.20684814 10.44612122 C8.23127169 12.91839946 9.24054321 15.39657747 10.25 17.875 C11.31465985 20.45662717 12.38302693 23.03669933 13.45166016 25.61668396 C14.18696328 27.39250206 14.92099564 29.16884682 15.65380859 30.94569397 C18.17812751 37.05697905 20.76192705 43.13995891 23.390625 49.20703125 C23.73917542 50.01253418 24.08772583 50.81803711 24.44683838 51.64794922 C25.79489648 54.76079421 27.14424103 57.87303342 28.5020752 60.98162842 C29.43316601 63.11465482 30.35776415 65.25039137 31.28125 67.38671875 C31.80783203 68.59545654 32.33441406 69.80419434 32.87695312 71.04956055 C34 74 34 74 34 77 C17.5 77 1 77 -16 77 C-16 74.36 -16 71.72 -16 69 C-3.79 68.67 8.42 68.34 21 68 C18.31466854 61.60865659 15.62788996 55.21796429 12.93725586 48.82885742 C12.02166144 46.65344671 11.106946 44.47766584 10.19311523 42.30151367 C8.88233569 39.18050851 7.56844013 36.06083165 6.25390625 32.94140625 C5.63824547 31.47266808 5.63824547 31.47266808 5.01014709 29.97425842 C4.62982834 29.07340012 4.24950958 28.17254181 3.85766602 27.24438477 C3.52235367 26.44718521 3.18704132 25.64998566 2.84156799 24.82862854 C2.13869302 23.02311734 2.13869302 23.02311734 1 22 C0.65855957 22.81863525 0.31711914 23.63727051 -0.03466797 24.48071289 C-5.87502589 38.4731148 -11.71974745 52.46310157 -17.75 66.375 C-18.16749512 67.34187744 -18.58499023 68.30875488 -19.01513672 69.30493164 C-19.39686035 70.18141357 -19.77858398 71.05789551 -20.171875 71.9609375 C-20.6683252 73.10248291 -20.6683252 73.10248291 -21.17480469 74.26708984 C-22 76 -22 76 -23 77 C-24.51928038 77.07179964 -26.04167482 77.08392007 -27.5625 77.0625 C-28.80193359 77.04896484 -28.80193359 77.04896484 -30.06640625 77.03515625 C-31.02353516 77.01775391 -31.02353516 77.01775391 -32 77 C-28.19616115 66.12692638 -23.7154693 55.58131668 -19.10406494 45.03063965 C-14.544268 34.59795119 -10.07885199 24.12973374 -5.6875 13.625 C-5.25484329 12.59039139 -5.25484329 12.59039139 -4.81344604 11.53488159 C-3.20646606 7.69096057 -1.60203203 3.84598637 0 0 Z " fill="#FBEFE3" transform="translate(584,74)"/>
<path d="M0 0 C3 1 3 1 4.57128906 4.04638672 C5.14724886 5.41951706 5.71109248 6.79776482 6.265625 8.1796875 C6.57622864 8.92761063 6.88683228 9.67553375 7.20684814 10.44612122 C8.23127169 12.91839946 9.24054321 15.39657747 10.25 17.875 C11.31465985 20.45662717 12.38302693 23.03669933 13.45166016 25.61668396 C14.18696328 27.39250206 14.92099564 29.16884682 15.65380859 30.94569397 C18.17812751 37.05697905 20.76192705 43.13995891 23.390625 49.20703125 C23.73917542 50.01253418 24.08772583 50.81803711 24.44683838 51.64794922 C25.79489648 54.76079421 27.14424103 57.87303342 28.5020752 60.98162842 C29.43316601 63.11465482 30.35776415 65.25039137 31.28125 67.38671875 C31.80783203 68.59545654 32.33441406 69.80419434 32.87695312 71.04956055 C34 74 34 74 34 77 C17.5 77 1 77 -16 77 C-16 74.36 -16 71.72 -16 69 C-3.79 68.67 8.42 68.34 21 68 C18.31466854 61.60865659 15.62788996 55.21796429 12.93725586 48.82885742 C12.02166144 46.65344671 11.106946 44.47766584 10.19311523 42.30151367 C8.88233569 39.18050851 7.56844013 36.06083165 6.25390625 32.94140625 C5.63824547 31.47266808 5.63824547 31.47266808 5.01014709 29.97425842 C4.62982834 29.07340012 4.24950958 28.17254181 3.85766602 27.24438477 C3.52235367 26.44718521 3.18704132 25.64998566 2.84156799 24.82862854 C2.13869302 23.02311734 2.13869302 23.02311734 1 22 C0.65855957 22.81863525 0.31711914 23.63727051 -0.03466797 24.48071289 C-5.87502589 38.4731148 -11.71974745 52.46310157 -17.75 66.375 C-18.16749512 67.34187744 -18.58499023 68.30875488 -19.01513672 69.30493164 C-19.39686035 70.18141357 -19.77858398 71.05789551 -20.171875 71.9609375 C-20.6683252 73.10248291 -20.6683252 73.10248291 -21.17480469 74.26708984 C-22 76 -22 76 -23 77 C-24.51928038 77.07179964 -26.04167482 77.08392007 -27.5625 77.0625 C-28.80193359 77.04896484 -28.80193359 77.04896484 -30.06640625 77.03515625 C-31.02353516 77.01775391 -31.02353516 77.01775391 -32 77 C-28.19616115 66.12692638 -23.7154693 55.58131668 -19.10406494 45.03063965 C-14.544268 34.59795119 -10.07885199 24.12973374 -5.6875 13.625 C-5.25484329 12.59039139 -5.25484329 12.59039139 -4.81344604 11.53488159 C-3.20646606 7.69096057 -1.60203203 3.84598637 0 0 Z " fill="#FBEFE3" transform="translate(230,74)"/>
<path d="M0 0 C5.9065092 3.58700022 9.99968336 8.8765794 12.8203125 15.10546875 C12.9453125 17.41796875 12.9453125 17.41796875 11.8203125 19.10546875 C8.7578125 20.35546875 8.7578125 20.35546875 5.8203125 21.10546875 C5.38460937 20.41839844 4.94890625 19.73132813 4.5 19.0234375 C0.00311956 11.94656771 0.00311956 11.94656771 -7.1796875 8.10546875 C-15.08705433 6.51024344 -23.05426432 6.64776983 -30.1171875 10.85546875 C-37.79682355 19.23325353 -37.54946471 31.65566349 -37.4921875 42.41796875 C-37.48727295 43.51085205 -37.4823584 44.60373535 -37.47729492 45.72973633 C-37.42410769 60.03598111 -37.42410769 60.03598111 -31.8046875 72.85546875 C-26.35045528 77.53052494 -20.22599854 78.392592 -13.20703125 77.89453125 C-6.66844205 77.0356831 -2.60397918 76.08279689 1.8203125 71.10546875 C3.32870025 68.81917033 4.57211009 66.55386579 5.8203125 64.10546875 C8.7578125 64.85546875 8.7578125 64.85546875 11.8203125 66.10546875 C12.64453125 67.9375 12.64453125 67.9375 12.8203125 70.10546875 C9.75123389 77.45664276 4.08642482 83.01350606 -3.1796875 86.10546875 C-11.21781322 88.80988488 -23.6250925 88.30020138 -31.45703125 85.0859375 C-34.24111825 83.50134376 -36.14005075 81.55303285 -38.1796875 79.10546875 C-39.2315625 77.96078125 -39.2315625 77.96078125 -40.3046875 76.79296875 C-45.45665321 69.40848456 -46.32899157 61.11166077 -46.3828125 52.28515625 C-46.38851257 51.54524445 -46.39421265 50.80533264 -46.40008545 50.04299927 C-46.40949157 48.48147999 -46.41605188 46.91994125 -46.41992188 45.35839844 C-46.42957404 43.00809604 -46.4606161 40.65868952 -46.4921875 38.30859375 C-46.57450765 26.65882809 -46.16824386 14.38597493 -38.1796875 5.10546875 C-28.72183577 -3.55499969 -11.74767262 -4.90638092 0 0 Z " fill="#FBEFE3" transform="translate(722.1796875,64.89453125)"/>
<path d="M0 0 C35.4 0 35.4 0 44 7 C49.02649456 12.0684987 51.28462898 16.72143777 51.3125 23.875 C51.18350001 30.44593713 50.12030922 34.36567642 45.9375 39.5625 C35.76923077 48 35.76923077 48 30 48 C28.25 45.6875 28.25 45.6875 27 43 C28.26244442 39.21266675 29.44541788 38.93634414 32.875 37.0625 C36.46232928 35.10149639 38.82781704 33.50307601 41 30 C42.41629563 25.09743819 41.62157853 21.77464788 40 17 C39.505 15.515 39.505 15.515 39 14 C36.75256244 12.84979475 36.75256244 12.84979475 34 12 C32.02 11.34 30.04 10.68 28 10 C21.73 9.34 15.46 8.68 9 8 C9 34.07 9 60.14 9 87 C6.03 87 3.06 87 0 87 C0 58.29 0 29.58 0 0 Z " fill="#FBEEE2" transform="translate(94,64)"/>
</svg>
