<?xml version="1.0" encoding="UTF-8"?>
<svg version="1.1" xmlns="http://www.w3.org/2000/svg" width="1200" height="1200">
<path d="M0 0 C396 0 792 0 1200 0 C1200 396 1200 792 1200 1200 C804 1200 408 1200 0 1200 C0 804 0 408 0 0 Z M384 314 C383.1234375 314.36222656 382.246875 314.72445313 381.34375 315.09765625 C374.77012381 318.09027928 369.48617983 322.36210344 364 327 C363.16597656 327.64195312 362.33195312 328.28390625 361.47265625 328.9453125 C346.0587854 341.75367912 335.83795784 363.50452521 333.24609375 383.1171875 C331.6000867 402.39898432 336.16350899 419.67136896 348.39257812 434.74389648 C350.52196495 437.26640628 352.64378865 439.68345551 355 442 C355.66 442 356.32 442 357 442 C357 442.66 357 443.32 357 444 C358.96147874 445.38938077 360.96166576 446.7260411 363 448 C361.78519344 451.21293102 360.39859831 454.31769097 358.93359375 457.421875 C346.24882457 484.38598217 336.84697436 512.36418006 333 542 C332.9057373 542.67458252 332.81147461 543.34916504 332.71435547 544.04418945 C331.71682415 552.26266979 331.77817843 560.53395709 331.75976562 568.80053711 C331.75013679 571.40056314 331.71907 573.99977045 331.6875 576.59960938 C331.59138981 591.6862275 333.09462621 606.62110544 337.6875 621.0625 C338.07204346 622.29407837 338.07204346 622.29407837 338.46435547 623.55053711 C345.3925059 645.01708768 356.55485837 664.51820141 372 681 C372.50112305 681.53818359 373.00224609 682.07636719 373.51855469 682.63085938 C386.1242073 696.0297649 400.39337058 706.36038667 416 716 C417.093125 716.68707031 418.18625 717.37414062 419.3125 718.08203125 C456.99029054 740.75334884 501.66995066 750.70088722 545 755 C546.03439209 755.103125 547.06878418 755.20625 548.13452148 755.3125 C560.04194167 756.32705387 571.99547286 756.2427704 583.9375 756.25 C585.09173462 756.25100708 586.24596924 756.25201416 587.43518066 756.25305176 C605.82022214 756.24222166 623.77904624 755.5654749 642 753 C643.55630127 752.79117188 643.55630127 752.79117188 645.14404297 752.578125 C706.56630097 744.13976741 769.92131504 718.76666718 808.71313477 668.34423828 C826.70611278 643.9972096 838.01666056 613.1245664 838.203125 582.71484375 C838.21013931 581.94492096 838.21715363 581.17499817 838.22438049 580.38174438 C838.24182844 577.90026959 838.24823638 575.41903396 838.25 572.9375 C838.25067474 572.08719208 838.25134949 571.23688416 838.25204468 570.36080933 C838.23483636 556.69338192 837.53013709 543.45972629 835 530 C834.83902832 529.09427246 834.67805664 528.18854492 834.51220703 527.25537109 C829.96729037 502.1644623 821.99861187 474.95832832 808.64453125 453.046875 C808.10183594 452.04140625 807.55914063 451.0359375 807 450 C808.11440652 446.65678045 808.97472343 445.93980381 811.625 443.75 C812.34945313 443.12867188 813.07390625 442.50734375 813.8203125 441.8671875 C814.53960938 441.25101563 815.25890625 440.63484375 816 440 C828.97445417 428.82287282 835.70070427 412.54211763 837.203125 395.7265625 C837.7297877 372.11451829 828.19080065 350.11293156 812.09765625 333.1640625 C811.40542969 332.44992187 810.71320313 331.73578125 810 331 C809.46246094 330.38898438 808.92492187 329.77796875 808.37109375 329.1484375 C799.16310135 319.04041577 784.62772939 310.76225786 770.84741211 309.85888672 C759.63286779 309.41814527 749.45631219 309.47625554 739 314 C738.38882324 314.24717773 737.77764648 314.49435547 737.14794922 314.74902344 C723.24416098 320.45154658 706.89919974 332.20160051 700 346 C696.58256536 345.403335 693.58553962 344.53256048 690.39453125 343.1796875 C668.61440168 334.169879 646.34144916 328.25744023 623 325 C622.17886719 324.88285645 621.35773438 324.76571289 620.51171875 324.64501953 C596.58088442 321.39270703 570.89472179 321.59115723 547 325 C546.11441406 325.12358887 545.22882813 325.24717773 544.31640625 325.37451172 C522.38180177 328.54703078 501.27591564 334.08021146 480.91845703 342.88720703 C479.44675049 343.5153833 479.44675049 343.5153833 477.9453125 344.15625 C477.08437988 344.53587891 476.22344727 344.91550781 475.33642578 345.30664062 C472.72188605 346.08253329 471.50671101 346.0140273 469 345 C467.39453125 343.25 467.39453125 343.25 465.8125 341 C454.2600295 325.52312338 437.3722941 313.27400386 418 310 C406.29545085 308.93540636 394.90579713 309.32827511 384 314 Z M868.875 838.5625 C863.65016149 848.1413706 863.52044132 858.56584924 863.60888672 869.19970703 C863.62497915 871.49702302 863.60895087 873.79258058 863.58984375 876.08984375 C863.57189488 888.79089162 864.5562761 899.89538134 873.4375 909.6875 C881.54384193 917.0029793 890.64090369 916.50746542 901.0078125 916.13623047 C906.61838706 915.75256618 910.54715683 914.22684535 914.8125 910.625 C915.534375 909.75875 916.25625 908.8925 917 908 C917.721875 907.154375 918.44375 906.30875 919.1875 905.4375 C922.16604526 901.54753321 922.16604526 901.54753321 923 896.875 C922.06847068 894.64740034 922.06847068 894.64740034 918.9375 893.75 C917.4834375 893.37875 917.4834375 893.37875 916 893 C915.41992188 893.92232422 915.41992188 893.92232422 914.828125 894.86328125 C914.30734375 895.67152344 913.7865625 896.47976563 913.25 897.3125 C912.48429688 898.51326172 912.48429688 898.51326172 911.703125 899.73828125 C908.34415851 904.19892711 905.34956524 905.44844211 899.875 906.3125 C892.59609855 907.28574637 886.45744057 907.05975183 880.0625 903.25 C872.38286395 894.87221522 872.63022279 882.44980526 872.6875 871.6875 C872.69241455 870.5946167 872.6973291 869.5017334 872.70239258 868.37573242 C872.99096889 848.43436959 872.99096889 848.43436959 878.375 841.25 C883.02785719 837.2618367 887.91358407 836.08979958 894 836 C906.69121813 837.03837239 906.69121813 837.03837239 911 842 C912.78573555 844.603782 914.4359032 847.2578388 916 850 C919.00384054 849.3045656 919.00384054 849.3045656 922 848 C922.98057642 846.1948527 922.98057642 846.1948527 923 844 C920.34048284 838.10187727 915.5933479 832.32547975 910 829 C894.56204451 823.4606103 879.37711311 825.89818713 868.875 838.5625 Z M282 828 C282 856.71 282 885.42 282 915 C284.97 915 287.94 915 291 915 C291 888.93 291 862.86 291 836 C310 838 310 838 318 841 C318.99 841.33 319.98 841.66 321 842 C323.29126562 846.50352209 324.50691288 851.37807721 323.5 856.375 C321.80689436 860.46667197 320.70243935 861.66585345 317 864 C316.30519531 864.44472656 315.61039062 864.88945313 314.89453125 865.34765625 C312.94261255 866.58790194 310.97820342 867.80227883 309 869 C310.39759905 872.54518884 310.39759905 872.54518884 312 876 C318.82140185 874.97495929 324.65914166 871.34085834 329.5 866.5 C333.4198482 859.96691966 333.77727929 853.47762354 333 846 C331.25875116 839.74401616 327.31307911 835.5643298 322 832 C309.57204986 825.21630014 296.12837096 828 282 828 Z M418 838 C417.77151367 838.54148682 417.54302734 839.08297363 417.30761719 839.64086914 C416.12243695 842.44837217 414.93626263 845.25545414 413.75 848.0625 C413.05124756 849.71693115 413.05124756 849.71693115 412.33837891 851.40478516 C409.31003889 858.56863942 406.26537561 865.72537731 403.20825195 872.8769989 C401.38703982 877.13746611 399.5679036 881.39881883 397.74865723 885.66012573 C396.8326552 887.80391479 395.91558087 889.94724599 394.99743652 892.09011841 C393.69092678 895.1396719 392.38809171 898.19077218 391.0859375 901.2421875 C390.68847321 902.16723587 390.29100891 903.09228424 389.88150024 904.04536438 C389.51632294 904.90292831 389.15114563 905.76049225 388.77490234 906.64404297 C388.45500336 907.39168915 388.13510437 908.13933533 387.80551147 908.90963745 C386.84346196 911.27900574 386.84346196 911.27900574 386 915 C388.97 915 391.94 915 395 915 C400.90732438 903.92486726 405.57535025 892.3334591 410.375 880.75 C411.21445413 878.73291072 412.05429482 876.71598228 412.89453125 874.69921875 C414.93414734 869.80132424 416.9689847 864.9014668 419 860 C423.93645533 870.36627534 428.53692269 880.83356729 432.9375 891.4375 C434.938125 896.243125 436.93875 901.04875 439 906 C426.79 906.33 414.58 906.66 402 907 C402 909.64 402 912.28 402 915 C418.5 915 435 915 452 915 C451.22126237 911.10631186 450.41840831 908.31220183 448.88623047 904.74511719 C448.44842255 903.719245 448.01061462 902.6933728 447.55953979 901.63641357 C447.08356354 900.53436584 446.60758728 899.43231812 446.1171875 898.296875 C445.37844894 896.57008514 445.37844894 896.57008514 444.62478638 894.80841064 C443.31237891 891.74254436 441.99599305 888.67845345 440.6774292 885.61523438 C438.84728475 881.36109166 437.02425139 877.10389722 435.20098877 872.84680176 C434.19272245 870.49403202 433.18261206 868.14205164 432.17059326 865.79089355 C429.99190369 860.71802894 427.83624106 855.64239007 425.80175781 850.50976562 C425.48183868 849.706297 425.16191956 848.90282837 424.83230591 848.07501221 C424.26072163 846.62710359 423.69850513 845.17544424 423.1479187 843.71942139 C422.36219792 841.65098012 422.36219792 841.65098012 421 839 C420.01 838.67 419.02 838.34 418 838 Z M772 838 C771.77151367 838.54148682 771.54302734 839.08297363 771.30761719 839.64086914 C770.12243695 842.44837217 768.93626263 845.25545414 767.75 848.0625 C767.05124756 849.71693115 767.05124756 849.71693115 766.33837891 851.40478516 C763.31003889 858.56863942 760.26537561 865.72537731 757.20825195 872.8769989 C755.38703982 877.13746611 753.5679036 881.39881883 751.74865723 885.66012573 C750.8326552 887.80391479 749.91558087 889.94724599 748.99743652 892.09011841 C747.69092678 895.1396719 746.38809171 898.19077218 745.0859375 901.2421875 C744.68847321 902.16723587 744.29100891 903.09228424 743.88150024 904.04536438 C743.51632294 904.90292831 743.15114563 905.76049225 742.77490234 906.64404297 C742.45500336 907.39168915 742.13510437 908.13933533 741.80551147 908.90963745 C740.84346196 911.27900574 740.84346196 911.27900574 740 915 C742.97 915 745.94 915 749 915 C754.90732438 903.92486726 759.57535025 892.3334591 764.375 880.75 C765.21445413 878.73291072 766.05429482 876.71598228 766.89453125 874.69921875 C768.93414734 869.80132424 770.9689847 864.9014668 773 860 C777.93645533 870.36627534 782.53692269 880.83356729 786.9375 891.4375 C788.938125 896.243125 790.93875 901.04875 793 906 C780.79 906.33 768.58 906.66 756 907 C756 909.64 756 912.28 756 915 C772.5 915 789 915 806 915 C805.22126237 911.10631186 804.41840831 908.31220183 802.88623047 904.74511719 C802.44842255 903.719245 802.01061462 902.6933728 801.55953979 901.63641357 C801.08356354 900.53436584 800.60758728 899.43231812 800.1171875 898.296875 C799.37844894 896.57008514 799.37844894 896.57008514 798.62478638 894.80841064 C797.31237891 891.74254436 795.99599305 888.67845345 794.6774292 885.61523438 C792.84728475 881.36109166 791.02425139 877.10389722 789.20098877 872.84680176 C788.19272245 870.49403202 787.18261206 868.14205164 786.17059326 865.79089355 C783.99190369 860.71802894 781.83624106 855.64239007 779.80175781 850.50976562 C779.48183868 849.706297 779.16191956 848.90282837 778.83230591 848.07501221 C778.26072163 846.62710359 777.69850513 845.17544424 777.1479187 843.71942139 C776.36219792 841.65098012 776.36219792 841.65098012 775 839 C774.01 838.67 773.02 838.34 772 838 Z M512 842 C512 866.09 512 890.18 512 915 C514.64 915 517.28 915 520 915 C520.33 897.18 520.66 879.36 521 861 C525.62 868.59 530.24 876.18 535 884 C537.6776313 888.3403351 540.35866199 892.67628143 543.0625 897 C543.67287109 897.98226562 544.28324219 898.96453125 544.91210938 899.9765625 C546.07573621 901.83936964 547.25017748 903.69548848 548.43798828 905.54296875 C549.41776268 907.08414561 550.36470533 908.64723547 551.26123047 910.23828125 C552.50512518 912.45125533 552.50512518 912.45125533 555 915 C557.64 915 560.28 915 563 915 C563 890.91 563 866.82 563 842 C560.03 842 557.06 842 554 842 C553.67 859.49 553.34 876.98 553 895 C549.41125 889.1528125 549.41125 889.1528125 545.75 883.1875 C536.13323724 867.52074696 536.13323724 867.52074696 526.24853516 852.02246094 C525 850 525 850 523.84130859 847.70410156 C523.45410645 846.96901367 523.0669043 846.23392578 522.66796875 845.4765625 C522.34465576 844.80963379 522.02134277 844.14270508 521.68823242 843.45556641 C519.36169084 841.1293474 519.36169084 841.1293474 512 842 Z M632 842 C632 866.09 632 890.18 632 915 C655.56539492 915.35508574 655.56539492 915.35508574 675 905 C682.21602473 897.40280092 684.96552021 888.27276987 685.375 877.9375 C684.93124741 867.25330304 681.35431378 858.81551651 674 851 C661.19347713 840.89067086 648.55500473 842 632 842 Z " fill="#000000" transform="translate(0,0)"/>
<path d="M0 0 C8.70071279 5.54949309 16.64567051 13.08212891 22.875 21.3125 C22.875 21.9725 22.875 22.6325 22.875 23.3125 C21.06660008 24.52928173 19.1989288 25.65809596 17.3125 26.75 C9.4457514 31.42474614 2.15346555 36.77798781 -5.125 42.3125 C-6.02089844 42.99183594 -6.91679687 43.67117188 -7.83984375 44.37109375 C-28.33694021 60.35019164 -44.90979951 79.62476136 -59.125 101.3125 C-69.38352941 94.60080256 -75.8432109 85.73638265 -80.125 74.3125 C-80.37121094 73.65894531 -80.61742187 73.00539063 -80.87109375 72.33203125 C-85.57549802 57.11571675 -80.48051375 40.8235375 -73.53662109 27.17041016 C-65.3253868 12.02920607 -52.26368396 -0.33856498 -35.7734375 -5.796875 C-23.0472735 -8.90347606 -11.23230483 -6.27122462 0 0 Z " fill="#000000" transform="translate(432.125,332.6875)"/>
<path d="M0 0 C15.89181526 11.75558937 25.92121544 30.32618769 29.6875 49.5 C29.790625 50.655 29.89375 51.81 30 53 C30.06445312 53.71285156 30.12890625 54.42570312 30.1953125 55.16015625 C30.94829369 70.59627073 23.55910867 83.0782944 13.7734375 94.34375 C11.69389982 96.2858733 9.47679342 97.61367194 7 99 C6.27296875 97.93523437 5.5459375 96.87046875 4.796875 95.7734375 C-1.94932861 85.99467201 -9.07238299 76.84162462 -17 68 C-17.92587845 66.95060659 -18.85166155 65.90112904 -19.77734375 64.8515625 C-34.84753485 47.9188545 -52.50666611 34.47392438 -72 23 C-72.99 22.34 -73.98 21.68 -75 21 C-70.76675683 9.10956698 -58.51506079 0.74041181 -47.5703125 -4.70703125 C-30.75553469 -11.83995044 -15.25179939 -9.93445756 0 0 Z " fill="#000000" transform="translate(790,335)"/>
<path d="M0 0 C1.75783543 1.51005544 3.52551178 3.00893407 5.3125 4.484375 C6.89009993 5.78843946 8.42139349 7.14836415 9.9375 8.5234375 C9.9375 9.1834375 9.9375 9.8434375 9.9375 10.5234375 C10.5975 10.5234375 11.2575 10.5234375 11.9375 10.5234375 C11.9375 11.1834375 11.9375 11.8434375 11.9375 12.5234375 C12.5975 12.5234375 13.2575 12.5234375 13.9375 12.5234375 C16.51978746 14.94336557 18.68655567 17.79881619 20.9375 20.5234375 C21.3794873 21.05453125 21.82147461 21.585625 22.27685547 22.1328125 C61.95739518 69.99198976 84.75671186 132.76172597 79.25 195.2734375 C76.74699316 219.40907964 68.55885262 242.0809246 53.9375 261.5234375 C53.2465625 262.44382812 52.555625 263.36421875 51.84375 264.3125 C44.96752321 273.1260764 37.6211678 281.46072103 28.9375 288.5234375 C28.19306641 289.13638672 28.19306641 289.13638672 27.43359375 289.76171875 C4.09767068 308.90489914 -23.25091658 321.87643308 -52.0625 330.5234375 C-52.86977539 330.76803711 -53.67705078 331.01263672 -54.50878906 331.26464844 C-139.53690693 356.50070503 -238.68954678 349.25196918 -317.0625 307.5234375 C-330.34757855 299.95898894 -341.89436192 289.88284834 -353.0625 279.5234375 C-353.96742188 278.69972656 -353.96742188 278.69972656 -354.890625 277.859375 C-369.60956111 263.89701971 -380.25160931 245.45468235 -387.0625 226.5234375 C-387.46210938 225.41355469 -387.86171875 224.30367187 -388.2734375 223.16015625 C-404.56668139 173.97416059 -391.61245138 115.26020887 -369.25 70.1484375 C-359.41346121 50.84699386 -347.5881187 33.38011585 -332.83984375 17.51171875 C-330.90856455 15.44524787 -330.90856455 15.44524787 -329.0625 12.5234375 C-328.4025 12.5234375 -327.7425 12.5234375 -327.0625 12.5234375 C-327.0625 11.8634375 -327.0625 11.2034375 -327.0625 10.5234375 C-326.4025 10.5234375 -325.7425 10.5234375 -325.0625 10.5234375 C-325.0625 9.8634375 -325.0625 9.2034375 -325.0625 8.5234375 C-323.8046875 7.21875 -323.8046875 7.21875 -321.9375 5.6484375 C-319.30568549 3.42855917 -316.70432716 1.19891848 -314.15234375 -1.11328125 C-242.12699556 -65.94383096 -128.25434173 -72.25872354 0 0 Z M-310.40625 87.484375 C-314.27539857 91.78798305 -317.27971574 96.45991769 -320.0625 101.5234375 C-320.84367187 102.88855469 -320.84367187 102.88855469 -321.640625 104.28125 C-332.63841423 124.66604114 -336.5107977 150.25755024 -330.05078125 172.69921875 C-325.41251858 185.95401682 -317.6891661 197.29833421 -304.9375 203.6484375 C-289.21516445 210.64181403 -273.34433982 210.10919236 -257.28076172 204.40087891 C-246.26682274 200.04427571 -236.88312891 193.34204297 -228.0625 185.5234375 C-227.30839844 184.91242188 -226.55429687 184.30140625 -225.77734375 183.671875 C-209.24380793 169.96682768 -195.68837369 148.02440325 -193.0625 126.5234375 C-191.95243338 108.0067472 -193.83437203 92.45333512 -205.71875 77.4296875 C-214.27479332 68.22790506 -228.51700805 61.16143913 -241.08422852 60.40112305 C-268.40643136 59.44705098 -291.38647086 67.28304478 -310.40625 87.484375 Z M-108.0625 76.5234375 C-110.60857115 79.73440621 -112.88010659 83.05664299 -115.0625 86.5234375 C-115.46597656 87.14863281 -115.86945313 87.77382813 -116.28515625 88.41796875 C-124.63946039 102.99829422 -123.21955189 121.9006039 -119.0625 137.5234375 C-114.6375086 152.26234634 -106.11335895 164.99033067 -96.0625 176.5234375 C-95.49660156 177.173125 -94.93070313 177.8228125 -94.34765625 178.4921875 C-78.80248788 195.09184213 -57.37698835 207.41938577 -34.44580078 208.5703125 C-21.58328333 208.87207244 -9.28914222 205.60980081 0.24121094 196.75219727 C12.34652662 184.89822423 17.90476861 170.57312223 18.22998047 153.73242188 C18.40561893 127.77220023 11.07528404 103.17150776 -7.390625 84.203125 C-8.27234375 83.31882812 -9.1540625 82.43453125 -10.0625 81.5234375 C-10.69671875 80.86601562 -11.3309375 80.20859375 -11.984375 79.53125 C-28.20228306 63.95918784 -49.47186094 59.98096424 -71.109375 60.24609375 C-84.61358987 60.66994559 -98.77585462 66.45358107 -108.0625 76.5234375 Z M-197.5625 164.0234375 C-200.62770801 169.13211752 -201.91229584 173.51895897 -201.0625 179.5234375 C-197.42015541 192.45376081 -183.8656377 200.07321243 -173.0625 206.5234375 C-172.11117187 207.04292969 -171.15984375 207.56242187 -170.1796875 208.09765625 C-168.0625 209.5234375 -168.0625 209.5234375 -167.5 212.3984375 C-168.57054978 218.34593629 -172.84556391 221.54773775 -177.5546875 224.91015625 C-191.14857945 233.65513658 -204.63537592 238.21818818 -220.88671875 235.2734375 C-223.73321957 234.60120114 -226.47221187 233.80832715 -229.25 232.8984375 C-234.50875838 231.20346579 -239.57818111 230.72571839 -245.0625 231.5234375 C-247.90324462 232.86165909 -247.90324462 232.86165909 -249.0625 235.5234375 C-249.49959291 239.0201808 -249.6365045 241.40931806 -248.00390625 244.578125 C-245.27779989 247.30971648 -242.18268077 248.12374724 -238.5625 249.1484375 C-237.84199463 249.36008545 -237.12148926 249.5717334 -236.37915039 249.78979492 C-215.22490133 255.86388072 -193.60735441 255.16958852 -173.86328125 244.8515625 C-167.93519549 241.48958664 -162.37629828 237.79010494 -157.0625 233.5234375 C-156.55203125 233.94753906 -156.0415625 234.37164063 -155.515625 234.80859375 C-142.78431671 245.0794187 -127.78460332 253.12274812 -111.0625 253.5234375 C-109.88429688 253.57371094 -108.70609375 253.62398437 -107.4921875 253.67578125 C-94.91029548 254.05714428 -77.37374628 253.4184176 -67.3203125 245.078125 C-65.34814752 242.64048008 -65.18617605 240.61533868 -65.0625 237.5234375 C-66.20029872 235.19612194 -67.23090714 233.35503036 -69.0625 231.5234375 C-76.98901039 230.68978727 -83.49314005 232.06115704 -90.9765625 234.55859375 C-104.01255483 238.63440401 -117.13648575 235.58210784 -129.0625 229.5234375 C-135.38052898 225.98401812 -141.60316567 222.30851988 -146.0625 216.5234375 C-146.65625 213.12890625 -146.65625 213.12890625 -146.0625 209.5234375 C-143.62273511 207.55972429 -141.60497 206.26102201 -138.875 204.8359375 C-132.97174569 201.46264933 -127.73996922 197.90465549 -122.75 193.2734375 C-122.21802002 192.79044189 -121.68604004 192.30744629 -121.13793945 191.80981445 C-116.30067818 187.21170221 -113.46473152 182.22729614 -113.0625 175.5234375 C-113.84919653 170.05966847 -115.31226114 165.01351863 -119.5078125 161.21484375 C-129.3844763 154.01043747 -143.43825989 154.0419654 -155.20678711 154.18725586 C-157.25999876 154.21105339 -159.31191733 154.20775536 -161.36523438 154.20117188 C-174.04795748 154.22670628 -188.04219685 154.50313435 -197.5625 164.0234375 Z " fill="#000000" transform="translate(742.0625,395.4765625)"/>
<path d="M0 0 C9.69916998 6.76170707 14.97387568 14.93066955 17.3046875 26.48828125 C18.98248152 39.50443068 15.28589198 52.03304691 9.73828125 63.6796875 C9.3928125 64.50597656 9.04734375 65.33226562 8.69140625 66.18359375 C3.5241819 77.84729219 -5.91709708 87.4518098 -16.26171875 94.6796875 C-16.79168457 95.05077637 -17.32165039 95.42186523 -17.86767578 95.80419922 C-29.59463194 103.92234615 -43.46374751 112.15948462 -58.26171875 110.6796875 C-69.21758328 108.43160101 -76.77779541 104.09849853 -83.13671875 94.8046875 C-91.61728022 79.91983995 -90.04510171 62.68801129 -86.26171875 46.6796875 C-81.22991606 28.81955269 -71.37252649 12.67762489 -55.08984375 3.140625 C-38.0011395 -5.68696532 -17.60028089 -10.27442995 0 0 Z M-44.13671875 31.3671875 C-47.62325647 36.80208454 -48.82098092 41.89451336 -47.76171875 48.3046875 C-46.12865809 54.29257659 -42.53384575 58.00264138 -37.63671875 61.6171875 C-31.83531952 63.44355393 -25.60585694 63.99461562 -19.84765625 61.73046875 C-14.64183417 58.64012119 -11.23731704 55.0954547 -8.94921875 49.4296875 C-7.85389166 43.45517607 -8.15511845 38.77432379 -11.01171875 33.3671875 C-15.05937172 28.5324909 -19.127744 25.15173306 -25.51953125 24.421875 C-33.38392584 24.06112295 -38.41198463 26.0158056 -44.13671875 31.3671875 Z " fill="#000000" transform="translate(515.26171875,477.3203125)"/>
<path d="M0 0 C16.20572102 12.15429076 26.57846494 29.0147534 30.33154297 49.07910156 C30.96365923 53.76654822 31.04258382 58.45926363 31.078125 63.18359375 C31.08827637 64.13806396 31.09842773 65.09253418 31.10888672 66.07592773 C30.95761375 78.3578014 26.91865671 89.4988166 18.078125 98.24609375 C11.64097566 103.46240442 2.35126056 106.21952556 -5.93359375 105.75 C-21.86567902 103.26141341 -34.42105205 95.88653518 -46.359375 85.37109375 C-47.7515625 84.23027344 -47.7515625 84.23027344 -49.171875 83.06640625 C-64.01951518 70.48715554 -73.90721661 50.96718962 -75.60546875 31.55859375 C-76.04488966 21.33207082 -73.75844284 11.09773914 -67.046875 3.14453125 C-49.08255395 -15.73463948 -20.74346442 -14.32123289 0 0 Z M-44.671875 25.74609375 C-48.31107394 30.39456386 -49.86166349 34.20770017 -49.66796875 40.2578125 C-48.70804218 46.83148683 -45.04834665 51.15093207 -40.04296875 55.2421875 C-35.39574223 58.35830923 -29.71206031 57.89758739 -24.359375 57.37109375 C-18.14726474 55.47866281 -14.56729151 52.11495219 -11.28125 46.54296875 C-9.24743467 41.75143772 -9.62088701 35.99781149 -11.01171875 31.05078125 C-13.24847222 26.00128629 -16.53163534 22.98098549 -21.359375 20.37109375 C-29.84810544 17.54151694 -38.57352295 19.00116943 -44.671875 25.74609375 Z " fill="#000000" transform="translate(712.359375,482.62890625)"/>
<path d="M0 0 C0.66 0.66 1.32 1.32 2 2 C1.72402352 5.71035047 -0.04394315 7.35997899 -2.75 9.75 C-8.37916624 14.58799101 -14.59870949 18.27993009 -21 22 C-42.02752294 10.91743119 -42.02752294 10.91743119 -45 2 C-32.15294813 -4.28685517 -13.68853643 -3.49770174 0 0 Z " fill="#000000" transform="translate(606,568)"/>
<path d="M0 0 C22.44664973 2.80583122 22.44664973 2.80583122 29.4375 10.375 C35.52911101 18.48564356 36.09474324 25.94730965 35 36 C32.88256018 43.40123642 28.41043168 48.82333036 22 53 C14.96335464 56.61846469 7.98445308 56.3858113 0 57 C0 38.19 0 19.38 0 0 Z " fill="#000000" transform="translate(641,850)"/>
</svg>
